# xmcd
# 
# Track frame offsets:
#     150
#     14257
#     34174
#     46099
#     62378
#     80632
#     96206
# 
# Disc length: 1469
# 
# Revision: 0
# Processed by: cddbd v1.5.2PL0 Copyright (c) Steve Scherf et al.
# Submitted via: fre:ac v1.0.31
# 
DISCID=4b05bb07
DTITLE=The Roys - New Day Dawning
DYEAR=2012
DGENRE=Country
TTITLE0=New Day Dawning
TTITLE1=Daddy To Me
TTITLE2=Still Standing
TTITLE3=Windin' Roads
TTITLE4=Grandpa's Barn
TTITLE5=Living Scrapbook
TTITLE6=Fast As we Roll
EXTD=
EXTT0=
EXTT1=
EXTT2=
EXTT3=
EXTT4=
EXTT5=
EXTT6=
PLAYORDER=
